<?xml version="1.0" encoding="utf-8" ?><svg xmlns="http://www.w3.org/2000/svg" xmlns:xlink="http://www.w3.org/1999/xlink" width="967" height="705" viewBox="0 0 967 705"><clipPath id="cl_4"><rect width="966.62109" height="705"/></clipPath><g clip-path="url(#cl_4)"><path fill="#E79220" transform="scale(0.688477 0.688477)" d="M601.585 39.9469C607.871 38.8157 618.616 37.0735 624.585 38.8732L625.712 39.9079C625.276 41.6879 623.923 43.9185 622.597 45.175C612.321 54.9152 602.965 63.7433 593.964 74.8022C588.538 82.0176 585.101 86.7703 580.54 94.4208C577.454 99.5949 570.902 113.511 567.69 116.976C566.184 118.582 566.101 118.69 564.187 119.722C552.036 126.389 539.267 131.927 526.921 138.269C509.616 147.158 496.484 156.09 481.69 168.512C444.292 202.884 426.003 232.921 409.458 281.562L403.172 307.331C400.537 324.521 397.534 341.633 395.325 358.889C394.972 361.646 394.604 365.485 393.947 368.121C393.43 372.749 391.818 392.93 390.602 396.238C389.106 414.555 387.329 432.849 385.272 451.111C382.714 469.312 380.01 488.199 375.812 506.051L374.273 512.605C373.845 514.137 371.707 522.129 371.231 523.063C367.108 538.487 360.916 560.144 354.285 574.599C341.798 601.82 314.843 645.126 286.743 658.701C277.504 664.968 260.118 671.659 249.19 674.018C240.745 676.22 220.994 678.99 213.951 673.831C211.555 670.24 214.552 654.586 215.139 649.332C217.373 631.042 216.937 614.682 214.021 596.396C214.076 592.395 206.682 568.685 210.362 567.257C226.989 560.803 250.443 552.97 268.211 547.939C270.779 547.212 272.882 547.359 274.47 547.629C275.85 551.612 280.027 573.694 280.814 574.21C281.783 573.048 282.48 572.234 283.322 570.951C302.837 535.7 313.031 492.453 319.737 452.994C319.729 449.789 323.696 422.935 324.394 418.125C326.869 401.057 327.683 376.894 331.049 360.69C331.877 347.219 334.957 326.498 336.976 312.957C336.999 308.053 339.043 296.412 339.919 291.306C347.43 247.557 365.478 214.519 385.874 176.466L382.724 177.754C373.517 182.445 365.122 187.399 356.217 192.595C353.792 194.009 345.077 199.181 342.891 199.988C330.109 208.413 314.998 218.228 301.902 226.082C293.43 232.391 282.742 238.122 273.927 244.209C280.522 250.027 284.833 253.875 290.081 261.153C292.615 263.639 295.707 268.419 297.4 271.6C303.919 280.806 309.89 297.304 311.138 308.688C311.968 314.638 315.252 335.8 313.231 340.248C308.665 342.969 267.585 349.268 263.446 348.92C258.501 350.228 251.251 350.744 246.1 351.05C243.765 338.406 244.074 324.988 238.485 313.039C228.303 291.268 210.408 291.812 191.43 300.923C184.848 305.843 181.01 310.307 176.729 317.38C170.339 333.762 169.739 344.068 174.675 361.361C184.506 389.64 198.392 407.561 217.192 430.284C220.505 434.288 233.699 450.498 234.933 453.887C239.602 459.552 244.782 468.146 248.751 474.531C251.603 479.565 254.952 485.485 257.025 490.905C262.027 502.025 265.569 511.2 268.957 522.988C264.486 526.032 209.268 545.162 202.713 546.906C199.244 540.837 196.04 531.869 193.04 525.265C188.181 514.569 183.414 506.817 176.52 497.328C172.804 494.123 164.438 482.962 160.64 478.517C141.217 455.915 112.594 420.196 104.699 390.682C101.373 383.499 99.5139 371.503 98.4171 363.511C96.4394 344.03 97.7889 331.008 101.923 312.101C102.025 311.56 102.131 311.02 102.241 310.48C106.373 290.377 117.858 270.464 132.156 255.865C149.731 237.918 172.086 227.098 193.718 215.027C210.135 205.854 226.239 196.134 242.005 185.884C250.658 180.603 259.398 175.465 268.222 170.474C271.036 167.512 332.654 130.494 338.79 127.78C340.316 126.509 348.7 121.952 350.701 120.872C375.21 107.65 400.702 92.4513 429.33 91.8433C433.136 91.7624 439.417 90.8225 442.924 91.8262C451.773 91.9721 458.768 92.7632 467.573 93.8289C471.366 93.2625 477.673 89.2271 481.222 87.1799C491.378 80.8614 508.462 72.7883 519.449 68.1085C526.217 64.8433 532.977 62.1053 539.918 59.2351C551.197 52.5216 587.728 41.75 601.585 39.9469Z"/><path fill="#F1ECD9" transform="scale(0.688477 0.688477)" d="M249.19 674.018C240.745 676.22 220.994 678.99 213.951 673.831C211.555 670.24 214.552 654.586 215.139 649.332C217.373 631.042 216.937 614.682 214.021 596.396C214.076 592.395 206.682 568.685 210.362 567.257C226.989 560.803 250.443 552.97 268.211 547.939C270.779 547.212 272.882 547.359 274.47 547.629C271.603 548.626 270.359 548.976 267.393 549.622C269.712 549.8 270.498 549.441 272.002 550.733L271.976 551.54C270.381 550.948 268.415 550.839 266.894 551.537C258.667 555.308 217.707 566.587 213.887 571.172C213.653 575.851 216.502 586.244 217.496 591.397C218.66 597.765 219.599 604.171 220.311 610.604C222.475 632.104 219.379 651.158 217.518 672.32C228.066 673.349 234.791 672.604 245.17 671.227L245.798 671.944C243.846 672.368 241.889 672.762 239.926 673.126L240.067 673.905C244.498 675.084 244.137 670.199 249.19 674.018Z"/><path fill="#F2EAD0" transform="scale(0.688477 0.688477)" d="M385.874 176.466C386.908 178.131 386.657 178.832 386.514 180.795C387.329 181.83 386.787 181.529 388.068 181.857C381.626 193.961 374.101 205.803 368.406 218.294C355.294 247.05 346.376 278.172 340.996 309.29C340.335 313.111 339.831 317.434 338.971 321.163C338.848 319.199 338.674 317.894 338.371 315.947L338.203 319.088C337.992 316.783 338.296 314.667 336.976 312.957C336.999 308.053 339.043 296.412 339.919 291.306C347.43 247.557 365.478 214.519 385.874 176.466Z"/><path fill="#F0E5C6" transform="scale(0.688477 0.688477)" d="M370.911 512.606C371.7 511.476 372.122 510.761 373.087 509.761C373.407 510.559 373.889 511.895 374.273 512.605C373.845 514.137 371.707 522.129 371.231 523.063C367.108 538.487 360.916 560.144 354.285 574.599C341.798 601.82 314.843 645.126 286.743 658.701L285.036 658.333C282.361 659.346 281.961 659.532 279.134 659.281C330.055 628.379 350.96 581.195 367.252 526.462C368.249 522.309 369.464 516.486 370.911 512.606Z"/><path fill="#F2EAD0" transform="scale(0.688477 0.688477)" d="M242.005 185.884L242.306 187.853C243.475 188.38 243.077 188.33 244.308 188.44L243.702 188.878C237.989 192.969 227.192 199.029 220.891 202.652C211.493 208.057 200.231 215.154 190.831 219.937C144.926 243.297 116.931 263.838 103.91 315.832L103.296 312.719L101.923 312.101C102.025 311.56 102.131 311.02 102.241 310.48C106.373 290.377 117.858 270.464 132.156 255.865C149.731 237.918 172.086 227.098 193.718 215.027C210.135 205.854 226.239 196.134 242.005 185.884Z"/><defs><linearGradient id="gradient_0" gradientUnits="userSpaceOnUse" x1="435.07382" y1="215.77217" x2="451.28976" y2="223.8728"><stop offset="0" stop-color="#F5F3D4"/><stop offset="1" stop-color="#EEDBB1"/></linearGradient></defs><path fill="url(#gradient_0)" transform="scale(0.688477 0.688477)" d="M481.3 163.55C481.26 165.118 481.006 167.22 481.69 168.512C444.292 202.884 426.003 232.921 409.458 281.562C409.006 277.804 410.041 274.67 409.677 270.008C410.578 264.01 417.369 249.71 420.002 244.019C435.628 210.246 452.903 187.519 481.3 163.55Z"/><path fill="#F2EAD0" transform="scale(0.688477 0.688477)" d="M257.025 490.905C262.027 502.025 265.569 511.2 268.957 522.988C264.486 526.032 209.268 545.162 202.713 546.906C199.244 540.837 196.04 531.869 193.04 525.265C188.181 514.569 183.414 506.817 176.52 497.328C179.204 497.659 179.539 497.556 181.606 499.12C193.68 515.654 196.194 525.927 205.016 542.932C225.048 536.778 244.611 529.01 264.662 522.645C262.863 514.026 259.693 508.099 257.443 500.225C256.927 496.79 256.329 494.313 257.025 490.905Z"/><path fill="#F2E5C4" transform="scale(0.688477 0.688477)" d="M201.171 293.147C208.669 290.1 218.127 290.765 225.442 293.955C246.086 302.958 247.955 328.294 249.581 347.467L256.659 346.668C258.912 347.702 267.589 346.279 272.193 346.519C269.271 346.933 265.57 346.956 263.586 348.552L263.446 348.92C258.501 350.228 251.251 350.744 246.1 351.05C243.765 338.406 244.074 324.988 238.485 313.039C228.303 291.268 210.408 291.812 191.43 300.923C190.324 300.614 190.834 300.894 189.941 300.012C193.664 296.354 197.821 296.858 201.171 293.147Z"/><path fill="#F1ECD9" transform="scale(0.688477 0.688477)" d="M319.737 452.994C321.655 457.139 319.623 457.863 320.269 462.786C320.485 461.01 320.629 458.321 321.415 456.817L322.013 457.925C317.538 491.871 303.682 544.115 285.863 573.084L283.322 570.951C302.837 535.7 313.031 492.453 319.737 452.994Z"/><defs><linearGradient id="gradient_1" gradientUnits="userSpaceOnUse" x1="395.13315" y1="113.0432" x2="390.67386" y2="101.4353"><stop offset="0" stop-color="#F4FBFC"/><stop offset="1" stop-color="#E9D9BA"/></linearGradient></defs><path fill="url(#gradient_1)" transform="scale(0.688477 0.688477)" d="M338.79 127.78C340.316 126.509 348.7 121.952 350.701 120.872C375.21 107.65 400.702 92.4513 429.33 91.8433C433.136 91.7624 439.417 90.8225 442.924 91.8262C443.971 92.4372 444.684 92.8906 445.802 93.3867L445.523 93.7474L444.711 93.7058C441.121 93.541 440.201 93.7318 436.76 94.7353C430.433 95.4728 419.781 95.6599 414.431 96.7973C388.492 102.312 365.82 118.27 343.274 128.891C342.056 128.705 340.055 128.114 338.79 127.78Z"/><path fill="#F1ECD9" transform="scale(0.688477 0.688477)" d="M174.675 361.361C184.506 389.64 198.392 407.561 217.192 430.284C220.505 434.288 233.699 450.498 234.933 453.887L234.404 453.865C233.087 453.004 232.824 452.496 231.78 451.303C230.337 452.292 232.246 451.505 231.501 454.342C229.465 451.729 227.391 449.146 225.28 446.594C223.139 442.915 212.44 430.13 209.172 426.097C193.493 406.748 182.626 392.271 173.619 369.193C173.888 366.335 174.203 364.172 174.675 361.361Z"/><path fill="#F2EAD0" transform="scale(0.688477 0.688477)" d="M481.3 163.55C505.267 142.983 531.437 131.066 559.829 118.508L564.187 119.722C552.036 126.389 539.267 131.927 526.921 138.269C509.616 147.158 496.484 156.09 481.69 168.512C481.006 167.22 481.26 165.118 481.3 163.55Z"/><path fill="#F2EAD0" transform="scale(0.688477 0.688477)" d="M107.325 388.312C110.434 395.161 112.866 402.611 115.983 409.626C126.115 432.422 142.784 451.248 158.488 470.333C160.267 472.505 162.474 474.883 164.009 477.177C162.097 478.819 163.179 478.379 160.64 478.517C141.217 455.915 112.594 420.196 104.699 390.682C106.983 392.634 108.919 398.786 110.626 402.096C109.768 397.963 106.053 391.375 107.325 388.312Z"/><path fill="#F0E5C6" transform="scale(0.688477 0.688477)" d="M539.918 59.2351C551.197 52.5216 587.728 41.75 601.585 39.9469C606.688 41.7538 612.634 39.6589 613.41 40.6356C610.211 42.3574 610.136 40.0935 609.182 41.8298C611.553 42.311 611.895 42.2409 614.351 42.0767C590.085 47.1959 563.445 53.26 540.696 63.2836L539.918 59.2351Z"/><path fill="#F1ECD9" transform="scale(0.688477 0.688477)" d="M319.737 452.994C319.729 449.789 323.696 422.935 324.394 418.125C326.869 401.057 327.683 376.894 331.049 360.69C332.075 360.94 332.876 361.167 333.93 361.304C331.603 388.589 328.493 415.803 324.604 442.91C324.272 445.153 322.641 456.593 322.013 457.925L321.415 456.817C320.629 458.321 320.485 461.01 320.269 462.786C319.623 457.863 321.655 457.139 319.737 452.994Z"/><path fill="#F0E5C6" transform="scale(0.688477 0.688477)" d="M268.222 170.474C271.036 167.512 332.654 130.494 338.79 127.78C340.055 128.114 342.056 128.705 343.274 128.891C340.328 130.733 336.631 133.189 333.66 134.828C328.464 137.874 323.325 141.016 318.244 144.251C307.176 150.761 296.176 157.388 285.248 164.13C279.839 167.46 270.999 173.284 265.598 175.777L265.548 175.04C263.563 174.303 264.337 176.592 260.963 176.817C261.838 174.709 265.29 174.65 268.375 171.902L268.222 170.474Z"/><path fill="#F2E5C4" transform="scale(0.688477 0.688477)" d="M101.923 312.101L103.296 312.719L103.91 315.832C100.536 333.098 100.064 346.219 101.754 363.712C103.635 370.145 105.581 381.139 107.325 388.312C106.053 391.375 109.768 397.963 110.626 402.096C108.919 398.786 106.983 392.634 104.699 390.682C101.373 383.499 99.5139 371.503 98.4171 363.511C96.4394 344.03 97.7889 331.008 101.923 312.101Z"/><path fill="#F2EAD0" transform="scale(0.688477 0.688477)" d="M98.4171 363.511C99.0533 362.365 99.5591 361.954 99.5039 360.887C99.0371 351.878 98.8152 340.305 99.6818 331.421L100.078 331.261C100.372 335.486 99.417 336.688 99.3806 340.382C99.304 348.142 99.699 356.841 100.901 364.499L101.437 364.409L101.754 363.712C103.635 370.145 105.581 381.139 107.325 388.312C106.053 391.375 109.768 397.963 110.626 402.096C108.919 398.786 106.983 392.634 104.699 390.682C101.373 383.499 99.5139 371.503 98.4171 363.511Z"/><path fill="#F2E5C4" transform="scale(0.688477 0.688477)" d="M390.474 368.49C391.881 359.133 392.749 348.636 394.114 338.972C396.164 324.248 398.985 309.642 402.567 295.214C403.446 300.404 402.085 304.437 403.172 307.331C400.537 324.521 397.534 341.633 395.325 358.889C394.972 361.646 394.604 365.485 393.947 368.121L390.474 368.49Z"/><path fill="#F2EAD0" transform="scale(0.688477 0.688477)" d="M308.46 315.001C308.187 310.94 308.135 311.172 311.138 308.688C311.968 314.638 315.252 335.8 313.231 340.248C308.665 342.969 267.585 349.268 263.446 348.92L263.586 348.552C265.57 346.956 269.271 346.933 272.193 346.519C267.589 346.279 258.912 347.702 256.659 346.668C274.515 343.8 292.994 342.198 310.758 339.194C310.381 331.097 309.614 323.024 308.46 315.001Z"/><path fill="#F0E5C6" transform="scale(0.688477 0.688477)" d="M267.456 244.036C275.28 237.664 292.132 227.589 301.319 221.926C301.433 222.886 301.659 225.286 301.902 226.082C293.43 232.391 282.742 238.122 273.927 244.209C280.522 250.027 284.833 253.875 290.081 261.153L288.818 261.603C286.346 260.682 281.577 253.807 277.975 250.977L276.988 251.52C274.331 249.761 270.071 246.132 267.456 244.036Z"/><path fill="#F1ECD9" transform="scale(0.688477 0.688477)" d="M601.585 39.9469C607.871 38.8157 618.616 37.0735 624.585 38.8732L625.712 39.9079C625.276 41.6879 623.923 43.9185 622.597 45.175C612.321 54.9152 602.965 63.7433 593.964 74.8022L592.773 73.7885C590.527 74.7215 590.014 75.639 588.128 76.7023C597.855 63.246 610.831 51.981 623.143 41.0186C619.958 41.1509 617.488 41.5779 614.351 42.0767C611.895 42.2409 611.553 42.311 609.182 41.8298C610.136 40.0935 610.211 42.3574 613.41 40.6356C612.634 39.6589 606.688 41.7538 601.585 39.9469Z"/><path fill="#F0E5C6" transform="scale(0.688477 0.688477)" d="M382.662 446.267L383.479 446.138L383.849 444.79C383.903 446.926 384.315 449.181 385.272 451.111C382.714 469.312 380.01 488.199 375.812 506.051C374.007 503.834 374.159 501.953 373.953 499.13C374.059 495.731 377.933 477.077 378.763 471.845C379.727 465.767 381.337 451.403 382.662 446.267Z"/><path fill="#F0E5C6" transform="scale(0.688477 0.688477)" d="M519.449 68.1085C521.025 68.8653 522.792 69.8 524.421 70.3606C512.083 75.9737 492.6 84.3188 481.555 91.7335L481.222 87.1799C491.378 80.8614 508.462 72.7883 519.449 68.1085Z"/><path fill="#D6923C" transform="scale(0.688477 0.688477)" d="M225.28 446.594C227.391 449.146 229.465 451.729 231.501 454.342C232.246 451.505 230.337 452.292 231.78 451.303C232.824 452.496 233.087 453.004 234.404 453.865L234.933 453.887C239.602 459.552 244.782 468.146 248.751 474.531C246.807 473.564 246.657 473.653 244.413 473.837L247.927 480.267C244.904 478.541 244.353 476.41 242.263 473.935C235.58 466.021 227.74 456.921 225.28 446.594Z"/><path fill="#F2EAD0" transform="scale(0.688477 0.688477)" d="M231.501 454.342C232.246 451.505 230.337 452.292 231.78 451.303C232.824 452.496 233.087 453.004 234.404 453.865L234.933 453.887C239.602 459.552 244.782 468.146 248.751 474.531C246.807 473.564 246.657 473.653 244.413 473.837C240.063 467.369 235.759 460.87 231.501 454.342Z"/><path fill="#F0E5C6" transform="scale(0.688477 0.688477)" d="M331.305 203.302C333.743 201.115 344.315 195.2 347.37 193.462C357.763 187.509 368.213 181.656 378.718 175.903C380.179 176.487 381.462 176.863 382.724 177.754C373.517 182.445 365.122 187.399 356.217 192.595C353.792 194.009 345.077 199.181 342.891 199.988C339.235 199.998 335.703 202.473 331.305 203.302Z"/><path fill="#F2E5C4" transform="scale(0.688477 0.688477)" d="M169.319 327.358C172.774 323.618 172.514 319.108 175.574 315.875L176.117 315.982L176.729 317.38C170.339 333.762 169.739 344.068 174.675 361.361C174.203 364.172 173.888 366.335 173.619 369.193C168.053 356.953 166.706 340.498 169.319 327.358Z"/><path fill="#F2EAD0" transform="scale(0.688477 0.688477)" d="M331.305 203.302C335.703 202.473 339.235 199.998 342.891 199.988C330.109 208.413 314.998 218.228 301.902 226.082C301.659 225.286 301.433 222.886 301.319 221.926C309.97 216.224 322.282 207.762 331.305 203.302Z"/><path fill="#F2EAD0" transform="scale(0.688477 0.688477)" d="M588.128 76.7023C590.014 75.639 590.527 74.7215 592.773 73.7885L593.964 74.8022C588.538 82.0176 585.101 86.7703 580.54 94.4208C577.454 99.5949 570.902 113.511 567.69 116.976C568.371 111.861 569.562 114.423 568.283 109.683C569.878 102.93 583.568 82.553 588.128 76.7023Z"/><path fill="#F0E5C6" transform="scale(0.688477 0.688477)" d="M291.936 268.796C291.788 267.522 291.766 266.777 291.36 265.557C292.969 267.668 294.603 269.758 296.264 271.827L297.4 271.6C303.919 280.806 309.89 297.304 311.138 308.688C308.135 311.172 308.187 310.94 308.46 315.001C306.385 302.376 303.906 288.931 297.078 277.901C295.3 275.028 293.511 271.782 291.936 268.796Z"/><path fill="#F2EAD0" transform="scale(0.688477 0.688477)" d="M387.505 400.094C389.103 398.75 389.222 397.239 389.96 395.14L390.602 396.238C389.106 414.555 387.329 432.849 385.272 451.111C384.315 449.181 383.903 446.926 383.849 444.79L383.479 446.138L382.662 446.267C382.746 443.653 383.107 440.243 383.467 437.598C385.137 425.331 385.466 412.248 387.505 400.094Z"/><path fill="#F2EAD0" transform="scale(0.688477 0.688477)" d="M279.134 659.281C281.961 659.532 282.361 659.346 285.036 658.333L286.743 658.701C277.504 664.968 260.118 671.659 249.19 674.018C244.137 670.199 244.498 675.084 240.067 673.905L239.926 673.126C241.889 672.762 243.846 672.368 245.798 671.944L245.17 671.227C246.163 670.693 250.647 669.878 252.211 669.462C261.597 666.96 270.323 663.361 279.134 659.281Z"/><path fill="#F2EAD0" transform="scale(0.688477 0.688477)" d="M274.47 547.629C275.85 551.612 280.027 573.694 280.814 574.21C281.783 573.048 282.48 572.234 283.322 570.951L285.863 573.084C283.352 577.006 281.718 579.347 278.785 582.952C276.332 573.806 274.18 561.18 271.976 551.54L272.002 550.733C270.498 549.441 269.712 549.8 267.393 549.622C270.359 548.976 271.603 548.626 274.47 547.629Z"/><path fill="#F1ECD9" transform="scale(0.688477 0.688477)" d="M336.976 312.957C338.296 314.667 337.992 316.783 338.203 319.088L338.371 315.947C338.674 317.894 338.848 319.199 338.971 321.163C337.374 334.053 335.149 348.587 333.93 361.304C332.876 361.167 332.075 360.94 331.049 360.69C331.877 347.219 334.957 326.498 336.976 312.957Z"/><path fill="#F0E5C6" transform="scale(0.688477 0.688477)" d="M169.319 327.358C172.143 311.466 185.841 297.609 201.171 293.147C197.821 296.858 193.664 296.354 189.941 300.012C190.834 300.894 190.324 300.614 191.43 300.923C184.848 305.843 181.01 310.307 176.729 317.38L176.117 315.982L175.574 315.875C172.514 319.108 172.774 323.618 169.319 327.358Z"/><path fill="#F2EAD0" transform="scale(0.688477 0.688477)" d="M390.474 368.49L393.947 368.121C393.43 372.749 391.818 392.93 390.602 396.238L389.96 395.14C389.222 397.239 389.103 398.75 387.505 400.094C387.815 390.731 389.534 378.104 390.474 368.49Z"/><path fill="#F1ECD9" transform="scale(0.688477 0.688477)" d="M268.222 170.474L268.375 171.902C265.29 174.65 261.838 174.709 260.963 176.817C264.337 176.592 263.563 174.303 265.548 175.04L265.598 175.777C259.547 179.531 250.574 185.133 244.308 188.44C243.077 188.33 243.475 188.38 242.306 187.853L242.005 185.884C250.658 180.603 259.398 175.465 268.222 170.474Z"/><path fill="#F0E5C6" transform="scale(0.688477 0.688477)" d="M402.567 295.214C403.36 289.578 407.58 275.205 409.677 270.008C410.041 274.67 409.006 277.804 409.458 281.562L403.172 307.331C402.085 304.437 403.446 300.404 402.567 295.214Z"/><path fill="#F2E5C4" transform="scale(0.688477 0.688477)" d="M164.009 477.177C169.248 482.231 177.366 493.105 181.606 499.12C179.539 497.556 179.204 497.659 176.52 497.328C172.804 494.123 164.438 482.962 160.64 478.517C163.179 478.379 162.097 478.819 164.009 477.177Z"/><path fill="#F0E5C6" transform="scale(0.688477 0.688477)" d="M378.718 175.903C384.984 172.714 390.55 169.914 396.998 167.134C394.146 172.108 391.379 177.181 388.068 181.857C386.787 181.529 387.329 181.83 386.514 180.795C386.657 178.832 386.908 178.131 385.874 176.466L382.724 177.754C381.462 176.863 380.179 176.487 378.718 175.903Z"/><path fill="#F0E5C6" transform="scale(0.688477 0.688477)" d="M244.413 473.837C246.657 473.653 246.807 473.564 248.751 474.531C251.603 479.565 254.952 485.485 257.025 490.905C256.329 494.313 256.927 496.79 257.443 500.225C254.565 494.272 251.146 485.375 247.927 480.267L244.413 473.837Z"/><path fill="#F1ECD9" transform="scale(0.688477 0.688477)" d="M519.449 68.1085C526.217 64.8433 532.977 62.1053 539.918 59.2351L540.696 63.2836C534.644 65.5892 530.264 67.5537 524.421 70.3606C522.792 69.8 521.025 68.8653 519.449 68.1085Z"/><path fill="#F2EAD0" transform="scale(0.688477 0.688477)" d="M467.573 93.8289C471.366 93.2625 477.673 89.2271 481.222 87.1799L481.555 91.7335C478.118 93.6304 474.403 95.7887 470.947 97.5728C468.344 97.2492 464.505 96.8954 462.029 96.435C464.009 95.3379 465.505 94.7089 467.573 93.8289Z"/><path fill="#F2E5C4" transform="scale(0.688477 0.688477)" d="M442.924 91.8262C451.773 91.9721 458.768 92.7632 467.573 93.8289C465.505 94.7089 464.009 95.3379 462.029 96.435C453.936 94.7459 445.019 94.8098 436.76 94.7353C440.201 93.7318 441.121 93.541 444.711 93.7058L445.523 93.7474L445.802 93.3867C444.684 92.8906 443.971 92.4372 442.924 91.8262Z"/><path fill="#F2EAD0" transform="scale(0.688477 0.688477)" d="M276.988 251.52L277.975 250.977C281.577 253.807 286.346 260.682 288.818 261.603L290.081 261.153C292.615 263.639 295.707 268.419 297.4 271.6L296.264 271.827C294.603 269.758 292.969 267.668 291.36 265.557C291.766 266.777 291.788 267.522 291.936 268.796C286.64 262.7 282.62 257.753 276.988 251.52Z"/><path fill="#D6923C" transform="scale(0.688477 0.688477)" d="M318.244 144.251C323.325 141.016 328.464 137.874 333.66 134.828C330.813 142.222 326.136 144.917 318.244 144.251Z"/><path fill="#F0E5C6" transform="scale(0.688477 0.688477)" d="M559.829 118.508C564.225 116.033 565.532 113.757 568.283 109.683C569.562 114.423 568.371 111.861 567.69 116.976C566.184 118.582 566.101 118.69 564.187 119.722L559.829 118.508Z"/><path fill="#F2E5C4" transform="scale(0.688477 0.688477)" d="M373.953 499.13C374.159 501.953 374.007 503.834 375.812 506.051L374.273 512.605C373.889 511.895 373.407 510.559 373.087 509.761C372.122 510.761 371.7 511.476 370.911 512.606C371.738 507.909 372.799 503.739 373.953 499.13Z"/><path fill="#E79220" transform="scale(0.688477 0.688477)" d="M873.097 55.912C884.411 55.449 895.093 59.1504 905.527 63.0113L910.398 64.9454C930.092 73.8758 949.356 83.7287 968.123 94.4712C979.766 92.8591 990.32 91.2025 1002.17 91.7301C1042.02 93.505 1076.77 113.741 1110.57 133.062C1140.28 150.045 1168.94 168.758 1198.44 186.253L1256.26 220.385C1293.65 242.631 1326.02 261.933 1338.1 307.17C1342.31 319.211 1346.92 351.317 1342.8 362.962C1341.37 374.297 1337.59 385.804 1333.39 396.381C1326.86 412.673 1318.47 428.15 1308.37 442.503C1299.79 454.473 1289.56 465.814 1280.23 477.193C1265.49 495.149 1246.24 522.525 1238.18 544.411C1222.23 540.82 1207.9 535.991 1192.46 530.763C1186.71 528.818 1176.76 525.896 1171.72 523.354C1173.68 516.736 1176.07 509.269 1178.79 502.914C1180.14 498.513 1182.31 493.872 1184.17 489.616C1185.28 486.958 1187.21 483.358 1188.55 480.698C1191.12 474.455 1203.82 455.594 1208.29 450.381C1210.54 446.772 1213.9 442.719 1216.64 439.475C1217.89 437.32 1226.21 427.023 1228.12 424.549C1235.65 415.006 1242.84 405.203 1249.69 395.158C1251.87 391.422 1254.16 387.745 1256.55 384.133C1268.93 358.333 1275.18 336.973 1259.81 310.762C1253.15 302.108 1246.18 295.696 1234.77 294.306C1225.75 293.237 1216.67 295.811 1209.56 301.457C1194.15 313.879 1194.33 333.172 1191.74 350.158C1184.16 349.757 1154.91 346.085 1147.38 344.237C1144.84 344.254 1130.03 341.659 1126.61 341.1C1127.36 332.196 1128.49 323.327 1129.97 314.515C1134.54 286.244 1144.53 262.367 1168.56 245.011C1153.28 232.976 1133.2 221.096 1116.52 210.922C1095.06 197.834 1072.51 184.41 1050.07 173.129C1059.51 183.687 1073.85 213.133 1078.98 226.329C1082.12 233.421 1085.63 242.289 1087.88 249.688C1089.92 255.626 1092.31 262.088 1093.86 268.13C1097.05 278.799 1100.88 295.524 1101.99 306.676C1102.71 309.262 1102.95 310.511 1103.3 313.173C1105.46 326.584 1110.4 355.54 1110.8 368.974C1115.34 415.693 1120.25 464.524 1132.68 509.851C1133.68 513.477 1137.91 527.044 1139.43 530.133L1142.95 539.986C1147.37 551.256 1154.11 566.104 1160.55 576.319C1162.01 567.696 1164.38 554.923 1167.18 546.765C1187.89 554.282 1211.19 561.656 1231.2 569.232C1226.01 600.629 1218.8 626.926 1225.55 659.264C1226.26 662.676 1228.62 671.336 1227.25 674.261C1221.39 677.117 1199.41 674.887 1192.9 673.286C1175.25 670.237 1156.36 660.157 1142.3 649.279C1101 617.636 1079.27 563.089 1067.22 514.255C1065 505.244 1061.36 491.321 1060.66 482.381C1059.4 476.978 1058.33 467.945 1057.48 462.201L1056.89 458.59C1056.25 453.867 1055.36 448.337 1055.18 443.643C1053.81 438.523 1053.09 428.295 1052.51 422.54C1051.33 410.59 1050.08 398.645 1048.76 386.708C1043.01 335.796 1034.64 287.656 1015.03 240.067C1011.61 234.773 1007.17 225.03 1003.32 218.648C990.032 196.996 973.026 177.86 953.084 162.121C943.279 154.533 929.733 147.693 921.192 140.358C918.459 138.011 911.981 116.509 909.544 111.035C905.701 102.407 903.57 98.2715 898.226 89.9025C896.778 88.2818 892.77 82.3585 891.295 80.2975C885.019 72.8715 877.218 64.4971 873.097 55.912Z"/><path fill="#F0E5C6" transform="scale(0.688477 0.688477)" d="M910.398 64.9454C930.092 73.8758 949.356 83.7287 968.123 94.4712C979.766 92.8591 990.32 91.2025 1002.17 91.7301C1042.02 93.505 1076.77 113.741 1110.57 133.062C1140.28 150.045 1168.94 168.758 1198.44 186.253L1256.26 220.385C1293.65 242.631 1326.02 261.933 1338.1 307.17L1337.17 307.261L1334.9 302.945L1334.32 303.2C1334.48 304.499 1334.55 305.066 1334.52 306.389L1334.49 307.387C1324.99 281.898 1314.75 261.479 1291.93 245.34C1269.04 229.144 1243.66 216.809 1219.73 202.342L1127.01 146.126C1085.03 121.1 1038.56 90.166 987.356 95.3437C981.841 95.9013 973.582 96.4179 968.432 98.2976C949.848 88.2998 929.574 75.7938 909.92 68.2374L910.398 64.9454Z"/><path fill="#F2E5C4" transform="scale(0.688477 0.688477)" d="M1043.67 167.066C1053.12 170.092 1072.36 181.73 1081.84 187.079C1101.91 198.401 1122.21 210.13 1141.58 222.605C1151.67 229.105 1164.38 236.889 1173.49 244.65C1140.48 271.283 1131.7 297.664 1130.17 338.564C1134.5 339.277 1154.12 341.554 1156.51 342.683C1152.53 343.155 1150.82 341.549 1147.38 344.237C1144.84 344.254 1130.03 341.659 1126.61 341.1C1127.36 332.196 1128.49 323.327 1129.97 314.515C1134.54 286.244 1144.53 262.367 1168.56 245.011C1153.28 232.976 1133.2 221.096 1116.52 210.922C1095.06 197.834 1072.51 184.41 1050.07 173.129C1059.51 183.687 1073.85 213.133 1078.98 226.329C1078.62 226.568 1077.91 226.84 1077.48 227.023C1076.28 225.121 1075.92 224.638 1074.33 223.031L1073.95 222.65C1069.61 214.644 1065.93 205.241 1061.46 196.793C1056.94 188.245 1047.16 174.864 1043.67 167.066Z"/><path fill="#F2EAD0" transform="scale(0.688477 0.688477)" d="M1339.09 364.816L1339.18 366.078L1340.24 366.761L1340.29 367.162L1339.57 367.145C1339.89 367.536 1339.66 367.361 1340.34 367.511C1340.8 365.475 1341.16 364.704 1341.99 362.765L1342.8 362.962C1341.37 374.297 1337.59 385.804 1333.39 396.381C1326.86 412.673 1318.47 428.15 1308.37 442.503C1299.79 454.473 1289.56 465.814 1280.23 477.193C1265.49 495.149 1246.24 522.525 1238.18 544.411C1222.23 540.82 1207.9 535.991 1192.46 530.763C1186.71 528.818 1176.76 525.896 1171.72 523.354C1173.68 516.736 1176.07 509.269 1178.79 502.914L1180.33 503.475L1182.6 501.869C1179.78 509.214 1177.92 514.656 1175.62 522.213C1183.36 525.494 1192.77 527.804 1200.84 530.561C1212.42 534.512 1223.91 538.624 1235.51 542.458C1243.64 523.371 1254.14 505.378 1266.74 488.9C1288.54 460.381 1313.16 437.61 1327.64 402.918C1333.43 389.042 1335.64 379.598 1339.09 364.816Z"/><path fill="#F2EAD0" transform="scale(0.688477 0.688477)" d="M1142.95 539.986C1147.37 551.256 1154.11 566.104 1160.55 576.319C1162.01 567.696 1164.38 554.923 1167.18 546.765C1187.89 554.282 1211.19 561.656 1231.2 569.232C1226.01 600.629 1218.8 626.926 1225.55 659.264C1226.26 662.676 1228.62 671.336 1227.25 674.261C1221.39 677.117 1199.41 674.887 1192.9 673.286C1195.5 671.394 1197 671.801 1200.37 671.941C1209.18 672.351 1214.4 672.821 1223.39 672.528C1222.65 663.045 1220.93 652.406 1220.15 642.316C1218.09 615.739 1221.95 596.424 1227.18 570.614C1207.75 564.264 1188.49 557.044 1168.99 551.077C1166.54 561.56 1164.56 572.244 1161.77 582.614C1152.24 568.031 1148.32 562 1141.52 546.099C1141.72 543.423 1141.65 542.37 1142.95 539.986Z"/><path fill="#F2EAD0" transform="scale(0.688477 0.688477)" d="M1015.03 240.067C1019.47 241.827 1022.82 256.806 1025.95 257.871C1046.63 309.189 1051.53 384.221 1057.48 439.561C1056.65 440.961 1055.93 442.198 1055.18 443.643C1053.81 438.523 1053.09 428.295 1052.51 422.54C1051.33 410.59 1050.08 398.645 1048.76 386.708C1043.01 335.796 1034.64 287.656 1015.03 240.067Z"/><path fill="#F2E5C4" transform="scale(0.688477 0.688477)" d="M898.226 89.9025C900.99 91.0645 901.723 91.2803 903.956 93.3816C907.584 100.154 910.859 107.108 913.768 114.219C927.232 147.117 919.699 135.866 949.337 155.528C980.894 176.462 1015.24 221.357 1025.95 257.871C1022.82 256.806 1019.47 241.827 1015.03 240.067C1011.61 234.773 1007.17 225.03 1003.32 218.648C990.032 196.996 973.026 177.86 953.084 162.121C943.279 154.533 929.733 147.693 921.192 140.358C918.459 138.011 911.981 116.509 909.544 111.035C905.701 102.407 903.57 98.2715 898.226 89.9025Z"/><path fill="#F2EAD0" transform="scale(0.688477 0.688477)" d="M1063.1 479.525C1074.87 542.808 1092.15 603.97 1144.19 646.567L1142.3 649.279C1101 617.636 1079.27 563.089 1067.22 514.255C1065 505.244 1061.36 491.321 1060.66 482.381C1062.12 481.461 1062.25 480.995 1063.1 479.525Z"/><path fill="#F2EAD0" transform="scale(0.688477 0.688477)" d="M1110.8 368.974C1115.34 415.693 1120.25 464.524 1132.68 509.851C1133.68 513.477 1137.91 527.044 1139.43 530.133C1137.97 533.067 1138.08 534.117 1137.98 537.291C1120.17 483.472 1113.41 429.63 1108.33 373.457C1108.66 372.03 1109.96 370.277 1110.8 368.974Z"/><path fill="#F2EAD0" transform="scale(0.688477 0.688477)" d="M1190.71 347.351C1190.99 341.762 1191.41 336.182 1191.98 330.617C1193.36 318.473 1198.21 306.879 1208.05 299.197C1215.95 293.095 1226 290.46 1235.88 291.895C1247.72 293.553 1255.62 299.3 1262.59 308.642L1259.81 310.762C1253.15 302.108 1246.18 295.696 1234.77 294.306C1225.75 293.237 1216.67 295.811 1209.56 301.457C1194.15 313.879 1194.33 333.172 1191.74 350.158C1184.16 349.757 1154.91 346.085 1147.38 344.237C1150.82 341.549 1152.53 343.155 1156.51 342.683C1163.58 342.957 1182.93 346.212 1190.71 347.351Z"/><path fill="#F2EAD0" transform="scale(0.688477 0.688477)" d="M1262.59 308.642C1275.32 328.284 1274.55 352.816 1265.12 373.661C1261.64 382.156 1254.97 394.997 1248.91 401.904C1249.63 398.973 1249.88 398.24 1249.69 395.158C1251.87 391.422 1254.16 387.745 1256.55 384.133C1268.93 358.333 1275.18 336.973 1259.81 310.762L1262.59 308.642Z"/><path fill="#F2E5C4" transform="scale(0.688477 0.688477)" d="M1334.49 307.387L1334.52 306.389C1334.55 305.066 1334.48 304.499 1334.32 303.2L1334.9 302.945L1337.17 307.261L1338.1 307.17C1342.31 319.211 1346.92 351.317 1342.8 362.962L1341.99 362.765C1341.16 364.704 1340.8 365.475 1340.34 367.511C1339.66 367.361 1339.89 367.536 1339.57 367.145L1340.29 367.162L1340.24 366.761L1339.18 366.078L1339.09 364.816C1341.17 343.104 1339.37 328.274 1334.49 307.387Z"/><path fill="#F2E5C4" transform="scale(0.688477 0.688477)" d="M1099.07 307.387L1099.32 306.678L1099.97 306.202L1099.84 304.883C1100.34 305.299 1100.52 305.992 1100.79 306.573L1101.99 306.676C1102.71 309.262 1102.95 310.511 1103.3 313.173C1105.46 326.584 1110.4 355.54 1110.8 368.974C1109.96 370.277 1108.66 372.03 1108.33 373.457C1105.35 352.899 1103.52 333.889 1099.86 313.109C1099.46 311.008 1099.29 309.52 1099.07 307.387Z"/><path fill="#F0E5C6" transform="scale(0.688477 0.688477)" d="M1099.07 307.387L1099.32 306.678L1099.97 306.202L1099.84 304.883C1100.34 305.299 1100.52 305.992 1100.79 306.573L1101.99 306.676C1102.71 309.262 1102.95 310.511 1103.3 313.173C1102.85 314.583 1102.55 316.414 1102.26 317.903C1101.69 315.573 1101.3 315.046 1099.86 313.109C1099.46 311.008 1099.29 309.52 1099.07 307.387Z"/><path fill="#F1ECD9" transform="scale(0.688477 0.688477)" d="M1249.69 395.158C1249.88 398.24 1249.63 398.973 1248.91 401.904C1245.75 408.186 1222.57 437.276 1216.98 444.358L1216.64 439.475C1217.89 437.32 1226.21 427.023 1228.12 424.549C1235.65 415.006 1242.84 405.203 1249.69 395.158Z"/><path fill="#F2E5C4" transform="scale(0.688477 0.688477)" d="M1144.19 646.567C1159.23 657.546 1174.05 667.105 1192.86 670.278C1193.74 670.427 1199.75 671.631 1200.37 671.941C1197 671.801 1195.5 671.394 1192.9 673.286C1175.25 670.237 1156.36 660.157 1142.3 649.279L1144.19 646.567Z"/><path fill="#F2E5C4" transform="scale(0.688477 0.688477)" d="M873.097 55.912C884.411 55.449 895.093 59.1504 905.527 63.0113L901.403 64.8007C897.006 63.0954 883.055 57.6692 879.017 58.8L878.964 59.704L880.305 61.1849C885.105 67.6136 890.053 73.6096 895.14 79.8016L892.239 78.546C891.771 79.2946 891.573 79.473 891.295 80.2975C885.019 72.8715 877.218 64.4971 873.097 55.912Z"/><path fill="#F2EAD0" transform="scale(0.688477 0.688477)" d="M1188.55 480.698C1191.12 474.455 1203.82 455.594 1208.29 450.381L1211.5 451.478C1203.68 462.589 1196.4 473.065 1189.99 485.065C1189.8 482.713 1189.83 482.607 1188.55 480.698Z"/><path fill="#F2EAD0" transform="scale(0.688477 0.688477)" d="M1093.86 268.13C1097.05 278.799 1100.88 295.524 1101.99 306.676L1100.79 306.573C1100.52 305.992 1100.34 305.299 1099.84 304.883L1099.97 306.202L1099.32 306.678L1099.07 307.387C1096.87 298.391 1095.96 289.909 1093.35 280.076C1093.15 276.538 1092.87 271.445 1093.86 268.13Z"/><path fill="#F0E5C6" transform="scale(0.688477 0.688477)" d="M1073.95 222.65L1074.33 223.031C1075.92 224.638 1076.28 225.121 1077.48 227.023C1077.91 226.84 1078.62 226.568 1078.98 226.329C1082.12 233.421 1085.63 242.289 1087.88 249.688C1087.03 251.671 1086.69 252.757 1086.12 254.84C1082.49 244.472 1077.99 232.889 1073.95 222.65Z"/><path fill="#F2EAD0" transform="scale(0.688477 0.688477)" d="M1087.88 249.688C1089.92 255.626 1092.31 262.088 1093.86 268.13C1092.87 271.445 1093.15 276.538 1093.35 280.076C1091.32 271.56 1088.91 263.14 1086.12 254.84C1086.69 252.757 1087.03 251.671 1087.88 249.688Z"/><path fill="#F1ECD9" transform="scale(0.688477 0.688477)" d="M1057.48 462.201C1057.9 460.745 1058.6 460.392 1059.78 459.424C1061.05 466.095 1062.16 472.798 1063.1 479.525C1062.25 480.995 1062.12 481.461 1060.66 482.381C1059.4 476.978 1058.33 467.945 1057.48 462.201Z"/><path fill="#F0E5C6" transform="scale(0.688477 0.688477)" d="M891.295 80.2975C891.573 79.473 891.771 79.2946 892.239 78.546L895.14 79.8016C898.96 84.8878 900.794 87.9177 903.956 93.3816C901.723 91.2803 900.99 91.0645 898.226 89.9025C896.778 88.2818 892.77 82.3585 891.295 80.2975Z"/><path fill="#F2E5C4" transform="scale(0.688477 0.688477)" d="M1057.48 439.561C1057.87 442.886 1058.97 450.316 1059.02 453.341C1056.85 455.53 1057.49 455.043 1056.89 458.59C1056.25 453.867 1055.36 448.337 1055.18 443.643C1055.93 442.198 1056.65 440.961 1057.48 439.561Z"/><path fill="#F1ECD9" transform="scale(0.688477 0.688477)" d="M1184.17 489.616C1184.8 491.566 1184.91 492.081 1185.96 493.802L1182.6 501.869L1180.33 503.475L1178.79 502.914C1180.14 498.513 1182.31 493.872 1184.17 489.616Z"/><path fill="#F1ECD9" transform="scale(0.688477 0.688477)" d="M1208.29 450.381C1210.54 446.772 1213.9 442.719 1216.64 439.475L1216.98 444.358L1211.5 451.478L1208.29 450.381Z"/><path fill="#F0E5C6" transform="scale(0.688477 0.688477)" d="M1137.98 537.291C1138.08 534.117 1137.97 533.067 1139.43 530.133L1142.95 539.986C1141.65 542.37 1141.72 543.423 1141.52 546.099L1137.98 537.291Z"/><path fill="#F1ECD9" transform="scale(0.688477 0.688477)" d="M1188.55 480.698C1189.83 482.607 1189.8 482.713 1189.99 485.065L1185.96 493.802C1184.91 492.081 1184.8 491.566 1184.17 489.616C1185.28 486.958 1187.21 483.358 1188.55 480.698Z"/><path fill="#F0E5C6" transform="scale(0.688477 0.688477)" d="M905.527 63.0113L910.398 64.9454L909.92 68.2374L901.403 64.8007L905.527 63.0113Z"/><path fill="#F2EAD0" transform="scale(0.688477 0.688477)" d="M1056.89 458.59C1057.49 455.043 1056.85 455.53 1059.02 453.341C1059.25 454.892 1059.8 457.999 1059.78 459.424C1058.6 460.392 1057.9 460.745 1057.48 462.201L1056.89 458.59Z"/><path fill="#E79220" transform="scale(0.688477 0.688477)" d="M659.962 606.695C699.596 592.943 766.086 594.751 805.145 612.389C825.079 621.39 840.207 641.116 834.003 664.1C832.703 669.727 826.276 688.624 822.386 691.482C809.265 716.794 781.09 738.931 756.386 752.428C767.876 790.02 784.142 817.583 819.821 836.487C879.046 867.867 934.02 849.213 956.672 784.61C964.476 753.552 960.54 736.342 955.076 706.098C952.131 696.316 949.513 687.932 946.229 678.258C943.328 670.641 939.884 662.698 936.746 655.125C934.781 651.918 934.073 649.591 932.811 646.064C938.942 641.026 952.097 631.691 958.758 627.825C961.885 625.146 967.559 621.627 971.142 619.255C975.291 616.331 982.449 610.599 987.511 610.585C996.887 615.155 1017.42 680.504 1020.84 693.376C1027.97 725.967 1031.38 761.005 1023.46 793.781C1022.42 798.087 1020.21 806.272 1018.38 810.084C1017.16 814.282 1011.43 829.629 1008.76 832.523C1005.4 839.637 999.791 847.648 995.122 854.086C975.965 880.502 955.208 895.723 924.557 906.942C884.608 921.563 838.139 917.228 799.838 899.732C782.224 891.686 745.839 865.479 735.429 849.272C731.477 845.629 726.347 836.238 722.427 835.268L720.713 836.873C714.308 846.585 701.009 862.418 691.726 869.464C684.892 877.413 662.954 892.16 653.221 896.029C640.824 902.975 623.748 909.034 609.8 911.795C606.169 912.697 598.571 914.299 594.885 914.236C587.047 915.518 580.915 915.662 573.08 915.556C564.571 916.15 552.801 914.859 544.387 913.427C501.786 906.176 469.878 881.879 445.525 846.931C417.222 806.314 411.17 752.521 419.771 704.653C424.196 680.029 432.441 655.434 442.37 632.546C444.825 626.886 448.21 615.377 452.909 612.11C458.359 611.249 472.144 621.171 477.468 624.587C483.453 628.069 507.66 642.493 510.717 646.903C510.452 650 507.498 654.879 505.954 657.871C491.289 689.804 483.718 716.917 484.315 752.135C487.391 789.086 498.75 820.359 533.086 839.936C537.478 842.44 542.367 844.176 546.604 846.56C568.741 852.7 579.443 852.366 601.656 846.677C648.011 830.115 677.151 799.499 688.486 751.307C682.825 748.343 666.2 738.048 661.922 733.632C658.874 731.557 658.125 731.046 655.618 728.345C650.503 724.313 644.245 718.093 640.132 712.967C619.82 687.655 596.295 648.475 628.264 622.091C632.817 616.193 652.101 608.168 659.962 606.695Z"/><path fill="#F1ECD9" transform="scale(0.688477 0.688477)" d="M573.08 915.556C564.571 916.15 552.801 914.859 544.387 913.427C501.786 906.176 469.878 881.879 445.525 846.931C417.222 806.314 411.17 752.521 419.771 704.653C424.196 680.029 432.441 655.434 442.37 632.546C444.825 626.886 448.21 615.377 452.909 612.11C458.359 611.249 472.144 621.171 477.468 624.587L472.772 625.549C467.172 621.792 460.272 617.603 454.282 614.597C452.554 618.465 450.896 622.498 449.232 626.406C422.475 683.175 409.863 750.608 431.613 811.095C445.495 849.814 474.097 881.494 511.207 899.253C522.418 904.516 538.931 909.857 551.343 910.985C557.359 915.061 574.918 912.801 581.205 914.019C577.727 914.451 576.226 914.179 573.08 915.556Z"/><path fill="#F2EAD0" transform="scale(0.688477 0.688477)" d="M817.339 692.916C817.881 693.998 817.849 693.975 818.564 694.984C819.957 693.273 820.125 693.132 821.938 691.805L822.386 691.482C809.265 716.794 781.09 738.931 756.386 752.428C767.876 790.02 784.142 817.583 819.821 836.487C879.046 867.867 934.02 849.213 956.672 784.61C957.957 784.982 958.279 785.171 959.625 785.234C951.027 811.793 938.088 831.736 912.642 844.773C872.903 865.133 830.933 849.565 797.74 825.606C781.311 809.93 768.736 795.998 760.669 774.327C758.192 767.674 755.606 757.101 752.504 751.195C781.479 736.437 799.567 719.96 817.339 692.916Z"/><path fill="#F2EAD0" transform="scale(0.688477 0.688477)" d="M1003.31 835.564C1004.57 835.107 1007.14 833.356 1008.76 832.523C1005.4 839.637 999.791 847.648 995.122 854.086C975.965 880.502 955.208 895.723 924.557 906.942C884.608 921.563 838.139 917.228 799.838 899.732C782.224 891.686 745.839 865.479 735.429 849.272L736.458 848.153C739.094 850.549 742.04 854.121 744.984 855.185C746.925 856.303 755.781 865.441 758.316 867.659C835.039 934.807 949.286 929.065 1003.31 835.564Z"/><path fill="#F1ECD9" transform="scale(0.688477 0.688477)" d="M659.962 606.695C699.596 592.943 766.086 594.751 805.145 612.389C825.079 621.39 840.207 641.116 834.003 664.1C833.034 660.005 831.877 656.058 830.717 652.019C830.577 651.653 829.844 647.345 829.777 646.797C827.628 629.33 808.798 616.989 793.88 611.775C760.218 600.009 723.428 599.206 688.361 603.399C680.273 604.366 671.008 607.18 662.909 608.923C660.291 608.579 659.751 608.677 657.11 609.117L656.407 609.24C657.671 608.401 658.748 607.605 659.962 606.695Z"/><path fill="#F2EAD0" transform="scale(0.688477 0.688477)" d="M661.922 733.632C661.786 732.543 661.793 732.588 662.005 731.508L665.309 732.29C674.561 738.612 683.175 744.449 693.18 749.542C686.535 796.286 643.83 842.053 597.31 850.786C598.704 849.338 599.837 848.704 601.656 846.677C648.011 830.115 677.151 799.499 688.486 751.307C682.825 748.343 666.2 738.048 661.922 733.632Z"/><path fill="#F1ECD9" transform="scale(0.688477 0.688477)" d="M480.757 760.009C481.098 755.478 481.164 755.318 484.315 752.135C487.391 789.086 498.75 820.359 533.086 839.936C537.478 842.44 542.367 844.176 546.604 846.56C545.658 848.67 545.784 847.736 546.572 850.316C543.419 849.272 539.785 847.774 536.564 846.611C532.76 844.043 528.224 841.834 523.94 838.815C511.681 830.174 505.738 822.347 496.938 810.791C496.134 808.638 494.627 806.13 493.514 804.028C485.953 789.752 482.549 775.918 480.757 760.009Z"/><path fill="#F0E5C6" transform="scale(0.688477 0.688477)" d="M505.981 647.738C508.091 653.719 505.625 652.429 505.954 657.871C491.289 689.804 483.718 716.917 484.315 752.135C481.164 755.318 481.098 755.478 480.757 760.009C477.056 734.863 484.045 704.975 492.015 681.237C494.17 674.817 497.697 667.995 499.647 661.805L499.797 661.312C501.403 658.762 504.635 650.888 505.981 647.738Z"/><defs><linearGradient id="gradient_2" gradientUnits="userSpaceOnUse" x1="648.26471" y1="673.95575" x2="616.52655" y2="678.54956"><stop offset="0" stop-color="#EDDBBE"/><stop offset="1" stop-color="#F6F3E0"/></linearGradient></defs><path fill="url(#gradient_2)" transform="scale(0.688477 0.688477)" d="M655.618 728.345C650.503 724.313 644.245 718.093 640.132 712.967C619.82 687.655 596.295 648.475 628.264 622.091L628.797 623.689C626.721 626.014 624.586 627.786 623.311 630.467L623.483 631.766C616.696 644.027 614.208 653.204 618.251 667.428C623.585 686.189 638.029 704.942 650.843 719.291L650.31 720.287C651.811 721.962 655.594 725.317 656.059 727.05L655.618 728.345Z"/><path fill="#F2EAD0" transform="scale(0.688477 0.688477)" d="M1020.84 693.376C1027.97 725.967 1031.38 761.005 1023.46 793.781C1022.42 798.087 1020.21 806.272 1018.38 810.084C1017.42 811.134 1016.94 811.795 1015.71 812.536C1016.21 810.058 1016.4 808.849 1016.17 806.335C1016.65 801.966 1020.85 789.619 1022 782.993C1026.46 757.133 1024.3 722.558 1018.26 697.191L1020.84 693.376Z"/><path fill="#F2EAD0" transform="scale(0.688477 0.688477)" d="M971.142 619.255C975.291 616.331 982.449 610.599 987.511 610.585C996.887 615.155 1017.42 680.504 1020.84 693.376L1018.26 697.191C1013.38 676.399 998.494 629.912 986.863 612.379L973.105 621.957L971.142 619.255Z"/><path fill="#F2EAD0" transform="scale(0.688477 0.688477)" d="M955.076 706.098C955.271 703.181 955.611 701.332 954.559 698.559C955.544 701.48 957.58 709.249 959.361 711.091C965.888 731.704 966.393 764.451 959.625 785.234C958.279 785.171 957.957 784.982 956.672 784.61C964.476 753.552 960.54 736.342 955.076 706.098Z"/><path fill="#F0E5C6" transform="scale(0.688477 0.688477)" d="M646.5 895.512C665.797 886.622 676.533 877.857 692.81 864.287C692.484 866.489 692.457 866.573 691.345 868.525L691.726 869.464C684.892 877.413 662.954 892.16 653.221 896.029C650.768 895.265 649.059 895.471 646.5 895.512Z"/><path fill="#F2EAD0" transform="scale(0.688477 0.688477)" d="M958.758 627.825C961.885 625.146 967.559 621.627 971.142 619.255L973.105 621.957L961.263 630.081C957.427 632.737 938.765 645.112 937.321 647.846L937.446 649.393C937.542 651.568 937.631 652.478 938.065 654.609C937.343 655.012 937.486 655.07 936.746 655.125C934.781 651.918 934.073 649.591 932.811 646.064C938.942 641.026 952.097 631.691 958.758 627.825Z"/><path fill="#F2EAD0" transform="scale(0.688477 0.688477)" d="M477.468 624.587C483.453 628.069 507.66 642.493 510.717 646.903C510.452 650 507.498 654.879 505.954 657.871C505.625 652.429 508.091 653.719 505.981 647.738C495.296 639.687 484.093 632.639 472.772 625.549L477.468 624.587Z"/><path fill="#F0E5C6" transform="scale(0.688477 0.688477)" d="M830.717 652.019C831.877 656.058 833.034 660.005 834.003 664.1C832.703 669.727 826.276 688.624 822.386 691.482L821.938 691.805C820.125 693.132 819.957 693.273 818.564 694.984C817.849 693.975 817.881 693.998 817.339 692.916C825.277 678.243 829.447 668.853 830.717 652.019Z"/><path fill="#F2E5C4" transform="scale(0.688477 0.688477)" d="M546.604 846.56C568.741 852.7 579.443 852.366 601.656 846.677C599.837 848.704 598.704 849.338 597.31 850.786C581.698 855.53 562.28 854.451 546.572 850.316C545.784 847.736 545.658 848.67 546.604 846.56Z"/><path fill="#F2EAD0" transform="scale(0.688477 0.688477)" d="M646.5 895.512C649.059 895.471 650.768 895.265 653.221 896.029C640.824 902.975 623.748 909.034 609.8 911.795L609.621 910.684C611.003 909.532 611.973 908.87 613.472 907.865C614.412 907.399 623.95 904.469 625.702 903.869C633.204 901.299 639.258 898.737 646.5 895.512Z"/><path fill="#F2EAD0" transform="scale(0.688477 0.688477)" d="M692.81 864.287C693.362 863.329 698.38 858.233 699.366 857.218C706.025 850.358 711.686 843.612 717.203 835.818L720.713 836.873C714.308 846.585 701.009 862.418 691.726 869.464L691.345 868.525C692.457 866.573 692.484 866.489 692.81 864.287Z"/><path fill="#F2EAD0" transform="scale(0.688477 0.688477)" d="M628.264 622.091C632.817 616.193 652.101 608.168 659.962 606.695C658.748 607.605 657.671 608.401 656.407 609.24L657.11 609.117C659.751 608.677 660.291 608.579 662.909 608.923C651.34 612.66 640.719 616.435 630.885 624.121C629.077 625.534 624.444 631.249 623.483 631.766L623.311 630.467C624.586 627.786 626.721 626.014 628.797 623.689L628.264 622.091Z"/><path fill="#F2E5C4" transform="scale(0.688477 0.688477)" d="M717.203 835.818C719.065 833.482 721.127 830.78 723.066 828.563C730.017 837.226 737.584 847.02 744.984 855.185C742.04 854.121 739.094 850.549 736.458 848.153L735.429 849.272C731.477 845.629 726.347 836.238 722.427 835.268L720.713 836.873L717.203 835.818Z"/><path fill="#F0E5C6" transform="scale(0.688477 0.688477)" d="M946.229 678.258L946.909 675.565C948.494 676.174 948.247 678.325 950.416 680.588C953.619 687.445 958.268 703.665 959.361 711.091C957.58 709.249 955.544 701.48 954.559 698.559C955.611 701.332 955.271 703.181 955.076 706.098C952.131 696.316 949.513 687.932 946.229 678.258Z"/><path fill="#F0E5C6" transform="scale(0.688477 0.688477)" d="M1003.31 835.564C1009.38 824.722 1011.83 818.034 1016.17 806.335C1016.4 808.849 1016.21 810.058 1015.71 812.536C1016.94 811.795 1017.42 811.134 1018.38 810.084C1017.16 814.282 1011.43 829.629 1008.76 832.523C1007.14 833.356 1004.57 835.107 1003.31 835.564Z"/><path fill="#F2E5C4" transform="scale(0.688477 0.688477)" d="M937.446 649.393C941.043 656.219 948.233 673.134 950.416 680.588C948.247 678.325 948.494 676.174 946.909 675.565L946.229 678.258C943.328 670.641 939.884 662.698 936.746 655.125C937.486 655.07 937.343 655.012 938.065 654.609C937.631 652.478 937.542 651.568 937.446 649.393Z"/><path fill="#F2EAD0" transform="scale(0.688477 0.688477)" d="M551.343 910.985C565.464 912.232 572.322 912.672 586.31 912.012C588.416 912.474 593.216 913.373 594.885 914.236C587.047 915.518 580.915 915.662 573.08 915.556C576.226 914.179 577.727 914.451 581.205 914.019C574.918 912.801 557.359 915.061 551.343 910.985Z"/><path fill="#F2EAD0" transform="scale(0.688477 0.688477)" d="M586.31 912.012C595.897 911.104 604.052 909.711 613.472 907.865C611.973 908.87 611.003 909.532 609.621 910.684L609.8 911.795C606.169 912.697 598.571 914.299 594.885 914.236C593.216 913.373 588.416 912.474 586.31 912.012Z"/><path fill="#F0E5C6" transform="scale(0.688477 0.688477)" d="M650.843 719.291C655.458 723.546 660.491 728.355 665.309 732.29L662.005 731.508C661.793 732.588 661.786 732.543 661.922 733.632C658.874 731.557 658.125 731.046 655.618 728.345L656.059 727.05C655.594 725.317 651.811 721.962 650.31 720.287L650.843 719.291Z"/><path fill="#E79220" transform="scale(0.688477 0.688477)" d="M662.356 50.1357C665.062 48.3618 676.223 43.8977 679.59 42.7471C712.701 31.435 742.087 31.0028 776.069 36.1571C794.541 40.0391 812.074 44.5288 828.354 54.6299C829.656 55.438 833.557 57.8897 834.366 59.0288C866.41 78.7342 888.598 116.341 897.145 152.291C900.103 164.381 901.551 176.79 901.456 189.236C901.111 202.319 899.616 216.223 896.548 228.962C895.55 233.586 892.605 245.956 890.313 249.51C880.701 272.629 863.471 294.252 845.59 311.33C818.734 336.979 789.799 358.112 780.958 396.45C778.047 409.074 778.239 420.994 778.313 433.963L696.941 434.488C693.319 434.587 687.939 435.008 684.6 434.086C684.104 433.402 683.657 433.103 683.614 432.261C681.289 386.729 691.314 349.128 718.219 312.489C747.925 268.546 796.001 254.065 799.573 193.931C799.411 168.631 792.627 153.431 775.013 135.954C775.658 132.758 775.74 134.105 774.234 130.718L770.022 128.265C768.784 128.804 767.102 129.474 765.976 130.122C759.841 127.813 753.808 125.425 747.389 124.766C717.116 121.661 690.991 139.234 680.749 167.595C677.794 175.779 676.701 181.966 674.777 190.493C674.312 193.725 673.096 208.582 672.429 210.154C665.138 211.013 648.017 210.715 640.167 210.639C625.739 210.499 609.429 211.062 595.159 210.488C592.006 210.652 588.852 210.791 585.697 210.906C571.997 211.352 574.414 199.368 574.295 189.183C574.325 167.955 579.993 149.306 587.305 129.703C590.715 121.785 593.629 116.534 597.994 109.219C606.025 94.855 630.236 67.7934 644.785 60.6896C650.446 56.5827 656.238 53.4662 662.356 50.1357Z"/><path fill="#F2EAD0" transform="scale(0.688477 0.688477)" d="M886.009 249.407C888.833 248.704 887.756 248.574 890.313 249.51C880.701 272.629 863.471 294.252 845.59 311.33C818.734 336.979 789.799 358.112 780.958 396.45C778.047 409.074 778.239 420.994 778.313 433.963L696.941 434.488L696.662 433.362L691.097 431.602L696.074 431.401C700.992 431.889 716.809 431.5 722.633 431.497C739.981 431.589 757.329 431.509 774.676 431.258C775.843 418.623 774.54 408.06 777.741 394.978C789.838 345.528 836.108 322.606 865.518 284.812C874.552 273.204 880.022 262.659 886.009 249.407Z"/><path fill="#F0E5C6" transform="scale(0.688477 0.688477)" d="M670.25 188.067C672.447 177.238 674.891 166.148 679.969 156.236C696.547 123.877 738.006 111.538 770.022 128.265C768.784 128.804 767.102 129.474 765.976 130.122C759.841 127.813 753.808 125.425 747.389 124.766C717.116 121.661 690.991 139.234 680.749 167.595C677.794 175.779 676.701 181.966 674.777 190.493C674.606 190.021 674.11 189.188 673.85 188.712L670.25 188.067Z"/><path fill="#F1ECD9" transform="scale(0.688477 0.688477)" d="M799.573 193.931L800.103 192.999C800.067 189.025 799.473 189.046 802.818 187.647C805.535 251.555 752.559 268.958 721.375 313.258L718.219 312.489C747.925 268.546 796.001 254.065 799.573 193.931Z"/><path fill="#F1ECD9" transform="scale(0.688477 0.688477)" d="M696.941 434.488C693.319 434.587 687.939 435.008 684.6 434.086C684.104 433.402 683.657 433.103 683.614 432.261C681.289 386.729 691.314 349.128 718.219 312.489L721.375 313.258C704.861 337.963 688.94 368.969 688.728 399.567C687.66 405.707 686.67 424.459 687.574 430.683C689.28 431.823 688.764 431.469 691.097 431.602L696.662 433.362L696.941 434.488Z"/><defs><linearGradient id="gradient_3" gradientUnits="userSpaceOnUse" x1="701.44977" y1="22.292669" x2="734.09387" y2="66.426689"><stop offset="0" stop-color="#E7D5BD"/><stop offset="1" stop-color="#F9FEEB"/></linearGradient></defs><path fill="url(#gradient_3)" transform="scale(0.688477 0.688477)" d="M662.356 50.1357C665.062 48.3618 676.223 43.8977 679.59 42.7471C712.701 31.435 742.087 31.0028 776.069 36.1571C774.995 37.4384 774.08 38.8045 772.63 39.5514C734.635 32.2415 696.98 38.6003 662.036 54.3481L662.356 50.1357Z"/><path fill="#F0E5C6" transform="scale(0.688477 0.688477)" d="M834.366 59.0288C866.41 78.7342 888.598 116.341 897.145 152.291C900.103 164.381 901.551 176.79 901.456 189.236C900.611 188.873 898.875 188.889 897.851 188.827C897.274 140.691 879.398 95.7091 839.584 66.9472L834.737 63.0755C833.761 60.9618 834.049 61.6685 834.366 59.0288Z"/><path fill="#F2EAD0" transform="scale(0.688477 0.688477)" d="M587.305 129.703L592.394 130.004C583.671 151.694 581.362 166.091 579.748 189.289L574.295 189.183C574.325 167.955 579.993 149.306 587.305 129.703Z"/><path fill="#F0E5C6" transform="scale(0.688477 0.688477)" d="M597.994 109.219C606.025 94.855 630.236 67.7934 644.785 60.6896C648.024 60.1687 644.914 61.4831 647.838 60.8942C646.303 62.0021 645.271 62.2882 644.821 63.7172L645.063 64.1939C641.122 68.6363 633.786 73.4094 629.138 77.6841C616.886 88.9507 606.996 101.833 599.132 116.483C599.246 112.921 599.498 112.502 597.994 109.219Z"/><path fill="#F2E5C4" transform="scale(0.688477 0.688477)" d="M774.234 130.718C792.513 143.501 803.046 165.4 802.818 187.647C799.473 189.046 800.067 189.025 800.103 192.999L799.573 193.931C799.411 168.631 792.627 153.431 775.013 135.954C775.658 132.758 775.74 134.105 774.234 130.718Z"/><path fill="#F2E5C4" transform="scale(0.688477 0.688477)" d="M776.069 36.1571C794.541 40.0391 812.074 44.5288 828.354 54.6299C829.656 55.438 833.557 57.8897 834.366 59.0288C834.049 61.6685 833.761 60.9618 834.737 63.0755C823.661 55.8744 810.396 48.7913 797.583 45.2971C789.34 42.7818 781.072 41.2215 772.63 39.5514C774.08 38.8045 774.995 37.4384 776.069 36.1571Z"/><path fill="#F0E5C6" transform="scale(0.688477 0.688477)" d="M601.177 206.932C620.127 206.671 643.451 206.044 662.131 206.997C662.164 208.921 662.538 208.318 661.636 209.383C663.112 210.194 665.246 209.77 667.205 209.692L672.429 210.154C665.138 211.013 648.017 210.715 640.167 210.639C625.739 210.499 609.429 211.062 595.159 210.488C599.361 210.219 600.193 211.011 601.177 206.932Z"/><path fill="#F2E5C4" transform="scale(0.688477 0.688477)" d="M574.295 189.183L579.748 189.289L579.405 206.377C586.727 206.66 593.848 206.951 601.177 206.932C600.193 211.011 599.361 210.219 595.159 210.488C592.006 210.652 588.852 210.791 585.697 210.906C571.997 211.352 574.414 199.368 574.295 189.183Z"/><path fill="#F2EAD0" transform="scale(0.688477 0.688477)" d="M897.851 188.827C898.875 188.889 900.611 188.873 901.456 189.236C901.111 202.319 899.616 216.223 896.548 228.962C894.906 226.092 894.845 225.491 894.301 222.337C896.976 210.85 897.439 200.556 897.851 188.827Z"/><path fill="#F1ECD9" transform="scale(0.688477 0.688477)" d="M670.25 188.067L673.85 188.712C674.11 189.188 674.606 190.021 674.777 190.493C674.312 193.725 673.096 208.582 672.429 210.154L667.205 209.692C665.246 209.77 663.112 210.194 661.636 209.383C662.538 208.318 662.164 208.921 662.131 206.997L668.586 206.794C668.857 199.592 669.229 195.217 670.25 188.067Z"/><path fill="#D6923C" transform="scale(0.688477 0.688477)" d="M797.583 45.2971C810.396 48.7913 823.661 55.8744 834.737 63.0755L839.584 66.9472C832.712 65.5659 813.943 54.6961 807.946 50.9391C804.212 48.5998 801.31 48.274 797.583 45.2971Z"/><path fill="#F0E5C6" transform="scale(0.688477 0.688477)" d="M886.009 249.407C890.059 238.246 891.655 234.522 894.301 222.337C894.845 225.491 894.906 226.092 896.548 228.962C895.55 233.586 892.605 245.956 890.313 249.51C887.756 248.574 888.833 248.704 886.009 249.407Z"/><path fill="#F1ECD9" transform="scale(0.688477 0.688477)" d="M597.994 109.219C599.498 112.502 599.246 112.921 599.132 116.483C596.913 120.86 594.407 125.568 592.394 130.004L587.305 129.703C590.715 121.785 593.629 116.534 597.994 109.219Z"/><path fill="#F1ECD9" transform="scale(0.688477 0.688477)" d="M644.785 60.6896C650.446 56.5827 656.238 53.4662 662.356 50.1357L662.036 54.3481C656.059 57.2316 649.344 62.2467 645.063 64.1939L644.821 63.7172C645.271 62.2882 646.303 62.0021 647.838 60.8942C644.914 61.4831 648.024 60.1687 644.785 60.6896Z"/><path fill="#D6923C" transform="scale(0.688477 0.688477)" d="M691.097 431.602C688.764 431.469 689.28 431.823 687.574 430.683C686.67 424.459 687.66 405.707 688.728 399.567C689.704 407.601 686.554 424.815 692.477 430.374L696.074 431.401L691.097 431.602Z"/><path fill="#E79220" transform="scale(0.688477 0.688477)" d="M408.407 419.166C410.541 373.76 437.796 329.561 480.592 312.893C509.186 301.757 545.492 298.967 574.117 310.899C583.628 314.032 592.675 318.43 601.013 323.975C616.594 333.572 633.718 352.018 641.272 368.755C655.546 399.61 657.997 436.037 646.489 468.054C631.285 510.353 601.19 527.17 569.083 555.186C563.997 559.624 555.941 568.843 551.309 574.161C547.581 579.26 542.903 585.366 539.596 590.609C536.168 596.857 525.346 619.845 518.98 623.394C518.44 623.695 515.398 623.385 514.542 623.293C504.566 618.235 478.545 600.978 468.701 594.419C456.718 588.183 459.794 586.348 464.95 574.495C474.129 553.393 487.534 532.069 503.291 515.226C505.847 511.428 516.019 502.432 519.7 499.391L520.898 502.995C533.963 491.762 545.002 484.846 557.953 472.199C558.287 470.774 558.191 468.523 558.19 466.976C575.365 446.31 579.885 413.898 562.671 391.009C555.039 380.861 541.48 376.637 529.122 375.5C525.667 375.88 522.217 376.173 518.827 376.933C494.79 385.754 488.027 400.137 482.87 423.936C482.266 426.724 481.364 430.523 479.139 432.417L476.072 432.936C472.001 430.787 428.034 423.751 419.791 421.347C414.95 420.989 413.145 420.474 408.407 419.166Z"/><path fill="#F0E5C6" transform="scale(0.688477 0.688477)" d="M641.272 368.755C655.546 399.61 657.997 436.037 646.489 468.054C631.285 510.353 601.19 527.17 569.083 555.186C563.997 559.624 555.941 568.843 551.309 574.161C550.094 573.783 547.676 574.387 546.245 574.618C552.346 565.065 566.477 551.707 575.289 544.769C602.254 523.54 626.056 506.721 639.654 473.748C652.817 441.829 652.58 405.857 639.546 373.963C640.752 372.564 640.903 370.624 641.272 368.755Z"/><path fill="#F1ECD9" transform="scale(0.688477 0.688477)" d="M408.407 419.166C410.541 373.76 437.796 329.561 480.592 312.893C509.186 301.757 545.492 298.967 574.117 310.899L573.458 311.848L577.203 315.141C571.43 313.212 561.811 309.852 555.908 309.428C530.034 302.28 493.234 308.395 469.805 322.041C441.848 338.325 427.362 359.669 417.629 390.338C416.335 394.415 412.214 413.109 413.438 416.539C415.766 417.381 416.656 417.607 419.094 418.047L418.698 418.236C416.682 419.184 416.564 419.352 414.421 418.777L414.392 419.101L414.369 419.103C416.51 419.275 418.139 419.919 419.791 421.347C414.95 420.989 413.145 420.474 408.407 419.166Z"/><path fill="#F2EAD0" transform="scale(0.688477 0.688477)" d="M537.135 372.964C561.023 378.017 572.839 388.747 577.252 413.167C577.646 415.348 577.86 418.679 578.449 420.669C577.717 441.816 575.505 450.194 562.527 467.589C560.939 469.138 559.476 470.573 557.953 472.199C558.287 470.774 558.191 468.523 558.19 466.976C575.365 446.31 579.885 413.898 562.671 391.009C555.039 380.861 541.48 376.637 529.122 375.5L529.595 375.127C533.4 374.687 533.533 374.674 537.135 372.964Z"/><path fill="#F1ECD9" transform="scale(0.688477 0.688477)" d="M503.291 515.226L504.628 518.75C490.166 535.312 478.666 554.833 469.624 574.798C468.195 577.953 464.84 584.704 464.995 587.969C465.809 588.814 466.227 589.277 467.11 590.04L469.587 593.182C469.156 594.274 469.504 593.904 468.701 594.419C456.718 588.183 459.794 586.348 464.95 574.495C474.129 553.393 487.534 532.069 503.291 515.226Z"/><path fill="#F2EAD0" transform="scale(0.688477 0.688477)" d="M511.676 375.877C521.816 372.677 526.426 371.974 537.135 372.964C533.533 374.674 533.4 374.687 529.595 375.127L529.122 375.5C525.667 375.88 522.217 376.173 518.827 376.933C494.79 385.754 488.027 400.137 482.87 423.936C482.266 426.724 481.364 430.523 479.139 432.417L476.072 432.936L477.606 428.921C483.502 405.136 487.373 386.979 511.676 375.877Z"/><path fill="#F0E5C6" transform="scale(0.688477 0.688477)" d="M419.094 418.047C438.272 421.111 459.151 426.358 477.606 428.921L476.072 432.936C472.001 430.787 428.034 423.751 419.791 421.347C418.139 419.919 416.51 419.275 414.369 419.103L414.392 419.101L414.421 418.777C416.564 419.352 416.682 419.184 418.698 418.236L419.094 418.047Z"/><path fill="#F2EAD0" transform="scale(0.688477 0.688477)" d="M601.013 323.975C616.594 333.572 633.718 352.018 641.272 368.755C640.903 370.624 640.752 372.564 639.546 373.963C632.659 359.313 624.44 346.304 611.722 335.965C607.868 331.812 602.507 328.428 597.694 325.464L601.013 323.975Z"/><path fill="#F0E5C6" transform="scale(0.688477 0.688477)" d="M467.11 590.04C483.87 599.558 500.754 611.846 517.376 620.945L514.542 623.293C504.566 618.235 478.545 600.978 468.701 594.419C469.504 593.904 469.156 594.274 469.587 593.182L467.11 590.04Z"/><path fill="#F0E5C6" transform="scale(0.688477 0.688477)" d="M538.474 585.519C539.032 587.532 539.31 588.552 539.596 590.609C536.168 596.857 525.346 619.845 518.98 623.394C518.44 623.695 515.398 623.385 514.542 623.293L517.376 620.945C524.22 609.348 531.011 596.498 538.474 585.519Z"/><path fill="#F2EAD0" transform="scale(0.688477 0.688477)" d="M574.117 310.899C583.628 314.032 592.675 318.43 601.013 323.975L597.694 325.464C591.524 321.659 583.864 318.5 577.203 315.141L573.458 311.848L574.117 310.899Z"/><path fill="#F0E5C6" transform="scale(0.688477 0.688477)" d="M519.7 499.391L520.898 502.995C514.868 508.399 510.136 512.793 504.628 518.75L503.291 515.226C505.847 511.428 516.019 502.432 519.7 499.391Z"/><path fill="#F2EAD0" transform="scale(0.688477 0.688477)" d="M546.245 574.618C547.676 574.387 550.094 573.783 551.309 574.161C547.581 579.26 542.903 585.366 539.596 590.609C539.31 588.552 539.032 587.532 538.474 585.519C540.226 582.505 543.979 577.132 546.245 574.618Z"/><path fill="#E79220" transform="scale(0.688477 0.688477)" d="M835.572 360.449C841.124 352.394 856.437 338.984 864.94 334.289C894.966 317.71 925.879 314.412 958.506 322.322C980.281 329.84 1003.61 341.668 1014.4 363.481C1022.07 375.174 1027.32 391.255 1030.49 404.834C1031.26 408.685 1032.03 412.205 1032.3 416.141C1033.07 421.182 1033.62 427.165 1033.52 432.287C1023.31 435.205 1005.5 436.368 994.399 438.429C991.949 438.883 975.418 441.441 973.375 441.512C969.97 442.184 966.592 442.345 963.132 442.599C961.941 433.606 960.555 424.809 958.011 416.093C954.023 406.355 951.063 397.723 941.218 392.412C938.389 390.886 935.059 390.388 932.426 388.667C921.325 388.51 918.014 388.478 907.92 393.475C881.449 410.799 883.677 433.451 890.883 460.381L893.691 467.599C895.709 471.746 897.702 475.905 899.668 480.076C904.828 488.917 909.468 495.455 915.096 503.875C919.166 508.357 928.211 520.162 932.021 524.936C942.138 537.616 973.053 572.801 977.788 586.424C977.065 589.024 970.431 593.046 967.713 594.749C952.771 604.113 938.664 614.754 924.109 624.683C922.173 626.004 920.456 624.762 919.021 623.79C910.476 613.218 899.957 601.36 891.974 590.618C890.067 589.487 877.886 575.233 875.301 572.382C852.756 547.042 834.892 523.506 821.872 491.968C804.434 452.677 805.792 405.261 829.773 369.019C830.764 366.903 834.06 362.556 835.572 360.449Z"/><path fill="#F1ECD9" transform="scale(0.688477 0.688477)" d="M835.572 360.449C841.124 352.394 856.437 338.984 864.94 334.289C894.966 317.71 925.879 314.412 958.506 322.322L955.838 323.63C955.972 324.124 956.107 324.618 956.242 325.112L955.85 325.393C910.236 317.014 868.993 325.867 838.159 362.845C837.024 362.075 836.525 361.431 835.572 360.449Z"/><path fill="#F1ECD9" transform="scale(0.688477 0.688477)" d="M829.773 369.019L831.252 369.219L832.551 371.397C814.589 399.931 810.422 434.08 817.87 466.703C819.701 474.726 821.784 480.577 824.181 488.286C822.166 489.961 822.814 489.249 821.872 491.968C804.434 452.677 805.792 405.261 829.773 369.019Z"/><path fill="#F2EAD0" transform="scale(0.688477 0.688477)" d="M909.869 502.14C911.413 503.044 912.337 503.557 913.965 504.291L915.096 503.875C919.166 508.357 928.211 520.162 932.021 524.936C942.138 537.616 973.053 572.801 977.788 586.424C977.065 589.024 970.431 593.046 967.713 594.749C952.771 604.113 938.664 614.754 924.109 624.683C922.173 626.004 920.456 624.762 919.021 623.79L920.19 622.615L921.722 623.664C921.503 623.71 969.73 590.101 974.444 586.811C961.215 561.232 940.581 540.003 922.305 518.022C918.142 513.015 913.248 507.689 909.869 502.14Z"/><path fill="#F2EAD0" transform="scale(0.688477 0.688477)" d="M821.872 491.968C822.814 489.249 822.166 489.961 824.181 488.286C840.904 526.72 850.258 537.458 877.42 569.64L875.301 572.382C852.756 547.042 834.892 523.506 821.872 491.968Z"/><path fill="#F0E5C6" transform="scale(0.688477 0.688477)" d="M889.333 466.084C883.637 455.342 881.243 434.799 883.4 422.958C885.842 409.552 891.965 400.048 902.916 392.17L907.92 393.475C881.449 410.799 883.677 433.451 890.883 460.381C889.043 465.689 892.624 463.087 889.333 466.084Z"/><path fill="#F0E5C6" transform="scale(0.688477 0.688477)" d="M958.506 322.322C980.281 329.84 1003.61 341.668 1014.4 363.481L1013.63 367.797C1003.87 350.967 987.059 337.465 969.267 329.971C965.399 328.341 960.005 326.853 955.85 325.393L956.242 325.112C956.107 324.618 955.972 324.124 955.838 323.63L958.506 322.322Z"/><path fill="#F2E5C4" transform="scale(0.688477 0.688477)" d="M1014.4 363.481C1022.07 375.174 1027.32 391.255 1030.49 404.834C1031.26 408.685 1032.03 412.205 1032.3 416.141C1031.96 420.001 1030.95 426.885 1030.23 430.829C1029.86 429.364 1029.37 423.101 1029.17 421.073C1028.48 414.317 1027.7 408.872 1026.3 402.256C1023.2 389.193 1019.46 379.702 1013.63 367.797L1014.4 363.481Z"/><path fill="#F0E5C6" transform="scale(0.688477 0.688477)" d="M1032.3 416.141C1033.07 421.182 1033.62 427.165 1033.52 432.287C1023.31 435.205 1005.5 436.368 994.399 438.429C991.949 438.883 975.418 441.441 973.375 441.512C971.892 440.564 968.151 440.45 966.193 440.288C971.195 438.752 983.876 437.199 989.593 436.375C1003.11 434.326 1016.66 432.477 1030.23 430.829C1030.95 426.885 1031.96 420.001 1032.3 416.141Z"/><path fill="#F0E5C6" transform="scale(0.688477 0.688477)" d="M936.627 386.882C947.669 390.397 956.245 398.159 959.281 409.657C958.001 413.526 960.345 413.823 959.119 415.445L958.603 415.323L958.011 416.093C954.023 406.355 951.063 397.723 941.218 392.412C938.389 390.886 935.059 390.388 932.426 388.667L929.819 387.384L930.317 387.018C932.479 387.23 934.459 387.018 936.627 386.882Z"/><path fill="#F2EAD0" transform="scale(0.688477 0.688477)" d="M891.974 590.618C892.286 589.132 891.852 588.892 891.204 587.189L890.415 587.446L890.472 587.422L890.347 586.636L891.606 587.211L890.462 586.718C891.897 588.68 893.75 589.348 895.953 590.418C901.013 594.521 917.487 616.979 920.19 622.615L919.021 623.79C910.476 613.218 899.957 601.36 891.974 590.618Z"/><path fill="#F2EAD0" transform="scale(0.688477 0.688477)" d="M958.011 416.093L958.603 415.323L959.119 415.445C960.345 413.823 958.001 413.526 959.281 409.657C962.239 418.345 965.834 431.124 966.193 440.288C968.151 440.45 971.892 440.564 973.375 441.512C969.97 442.184 966.592 442.345 963.132 442.599C961.941 433.606 960.555 424.809 958.011 416.093Z"/><path fill="#F2E5C4" transform="scale(0.688477 0.688477)" d="M902.916 392.17L904.933 391.028C915.541 385.093 924.647 383.483 936.627 386.882C934.459 387.018 932.479 387.23 930.317 387.018L929.819 387.384L932.426 388.667C921.325 388.51 918.014 388.478 907.92 393.475L902.916 392.17Z"/><path fill="#F0E5C6" transform="scale(0.688477 0.688477)" d="M877.42 569.64C881.056 573.55 893.489 586.581 895.953 590.418C893.75 589.348 891.897 588.68 890.462 586.718L891.606 587.211L890.347 586.636L890.472 587.422L890.415 587.446L891.204 587.189C891.852 588.892 892.286 589.132 891.974 590.618C890.067 589.487 877.886 575.233 875.301 572.382L877.42 569.64Z"/><path fill="#F1ECD9" transform="scale(0.688477 0.688477)" d="M899.668 480.076C904.828 488.917 909.468 495.455 915.096 503.875L913.965 504.291C912.337 503.557 911.413 503.044 909.869 502.14C908.239 501.094 901.723 490.452 900.485 488.289C900.103 485.05 899.18 483.511 899.668 480.076Z"/><path fill="#F2EAD0" transform="scale(0.688477 0.688477)" d="M893.691 467.599C895.709 471.746 897.702 475.905 899.668 480.076C899.18 483.511 900.103 485.05 900.485 488.289C897.452 483.939 895.214 479.269 892.8 474.554L893.691 467.599Z"/><path fill="#F2E5C4" transform="scale(0.688477 0.688477)" d="M829.773 369.019C830.764 366.903 834.06 362.556 835.572 360.449C836.525 361.431 837.024 362.075 838.159 362.845L832.551 371.397L831.252 369.219L829.773 369.019Z"/><path fill="#F2EAD0" transform="scale(0.688477 0.688477)" d="M889.333 466.084C892.624 463.087 889.043 465.689 890.883 460.381L893.691 467.599L892.8 474.554C891.164 471.284 890.237 469.642 889.333 466.084Z"/><path fill="#E79220" transform="scale(0.688477 0.688477)" d="M642.992 924.193C654.117 919.644 667.177 911.798 677.083 906.435C679.39 905.186 697.056 911.303 701.887 912.229C709.245 913.605 716.71 914.341 724.195 914.429C745.084 914.5 748.867 910.097 766.465 905.619C773.658 908.244 786.304 915.94 795.233 919.902C805.8 924.589 820.677 928.449 829.495 932.518C830.889 934.986 830.863 934.541 830.6 937.242C829.847 939.899 826.971 941.065 825.892 942.569C825.599 944.909 825.566 945.011 824.512 947.1L824.829 947.466C815.677 955.453 796.468 965.613 784.842 969.522C766.866 977.904 736.881 982.391 717.194 980.926C684.971 980.478 633.342 963.514 610.485 939.187C609.557 938.199 609.767 937.23 610.067 936.128C614.446 933.831 636.374 926.592 642.992 924.193Z"/><path fill="#F1ECD9" transform="scale(0.688477 0.688477)" d="M642.992 924.193C654.117 919.644 667.177 911.798 677.083 906.435C679.39 905.186 697.056 911.303 701.887 912.229C709.245 913.605 716.71 914.341 724.195 914.429C745.084 914.5 748.867 910.097 766.465 905.619C773.658 908.244 786.304 915.94 795.233 919.902C805.8 924.589 820.677 928.449 829.495 932.518C830.889 934.986 830.863 934.541 830.6 937.242C818.328 932.843 806.212 930.276 794.136 924.566C784.435 919.979 775.485 914.354 765.869 909.858C733.36 923.275 710.539 920.956 678.178 910.427C667.645 916.685 653.112 925.103 641.623 928.965C641.78 928.604 641.937 928.243 642.094 927.883C648.502 925.018 656.888 920.963 662.558 917.37C657.817 918.634 646.68 925.969 642.992 924.193Z"/><path fill="#F2EAD0" transform="scale(0.688477 0.688477)" d="M642.992 924.193C646.68 925.969 657.817 918.634 662.558 917.37C656.888 920.963 648.502 925.018 642.094 927.883C641.937 928.243 641.78 928.604 641.623 928.965C634.387 932.752 622.178 935.786 614.235 938.449C639.925 961.729 681.932 975.346 716.306 978.019L717.449 979.032L717.194 980.926C684.971 980.478 633.342 963.514 610.485 939.187C609.557 938.199 609.767 937.23 610.067 936.128C614.446 933.831 636.374 926.592 642.992 924.193Z"/><path fill="#F2E5C4" transform="scale(0.688477 0.688477)" d="M785.387 965.993C784.277 968.274 784.408 967.131 784.842 969.522C766.866 977.904 736.881 982.391 717.194 980.926L717.449 979.032L716.306 978.019C745.549 978.405 758.457 975.239 785.387 965.993Z"/><path fill="#F2EAD0" transform="scale(0.688477 0.688477)" d="M785.387 965.993C799.721 960.537 813.48 951.378 825.892 942.569C825.599 944.909 825.566 945.011 824.512 947.1L824.829 947.466C815.677 955.453 796.468 965.613 784.842 969.522C784.408 967.131 784.277 968.274 785.387 965.993Z"/><path fill="#E79220" transform="scale(0.688477 0.688477)" d="M679.784 508.023C680.957 495.125 689.522 482.586 699.655 474.94C711.45 465.891 726.408 462.002 741.118 464.159C755.517 466.276 767.463 474.144 776.116 485.669C791.287 508.378 790.329 537.117 770.315 556.834C768.397 558.724 766.1 560.667 763.793 562.057C761.622 563.916 758.56 565.922 755.887 566.962C751.061 569.398 747.212 571.043 741.809 571.912C734.189 573.823 725.711 573.279 718.207 571.108C712.954 569.612 709.182 567.744 704.599 564.801C702.261 563.798 699.226 561.279 697.338 559.609C682.531 549.475 676.807 524.845 679.784 508.023Z"/><path fill="#F1ECD9" transform="scale(0.688477 0.688477)" d="M679.784 508.023C680.957 495.125 689.522 482.586 699.655 474.94C711.45 465.891 726.408 462.002 741.118 464.159C755.517 466.276 767.463 474.144 776.116 485.669C774.063 487.599 774.501 486.669 773.931 489.208C765.532 477.52 755.222 470.618 740.914 468.295C727.286 466.045 713.33 469.462 702.284 477.754C693.666 484.119 684.154 497.089 683.191 508.024C682.351 510.492 682.242 510.943 680.572 512.918L679.917 512.452L679.784 508.023Z"/><path fill="#F2EAD0" transform="scale(0.688477 0.688477)" d="M773.931 489.208C774.501 486.669 774.063 487.599 776.116 485.669C791.287 508.378 790.329 537.117 770.315 556.834C768.397 558.724 766.1 560.667 763.793 562.057L763.42 561.462C765.476 558.756 766.03 558.002 767.556 554.89C785.67 533.958 785.491 513.027 773.931 489.208Z"/><path fill="#F0E5C6" transform="scale(0.688477 0.688477)" d="M679.784 508.023L679.917 512.452L680.572 512.918C682.242 510.943 682.351 510.492 683.191 508.024C682.403 520.151 682.231 529.948 687.612 541.417C688.59 543.503 692.038 548.71 692.287 550.164C693.508 556.091 698.936 555.891 697.338 559.609C682.531 549.475 676.807 524.845 679.784 508.023Z"/><path fill="#F2EAD0" transform="scale(0.688477 0.688477)" d="M731.312 568.834C738.949 568.694 742.157 568.025 749.562 565.982C751.455 566.071 754.526 565.915 755.887 566.962C751.061 569.398 747.212 571.043 741.809 571.912C738.052 570.207 735.357 569.941 731.328 569.473L731.312 568.834Z"/><path fill="#F1ECD9" transform="scale(0.688477 0.688477)" d="M718.207 571.108C723.718 569.215 725.639 569.476 731.328 569.473C735.357 569.941 738.052 570.207 741.809 571.912C734.189 573.823 725.711 573.279 718.207 571.108Z"/><path fill="#F2E5C4" transform="scale(0.688477 0.688477)" d="M692.287 550.164C702.302 559.739 702.484 559.476 713.915 566.186C709.339 566.509 709.435 563.528 704.599 564.801C702.261 563.798 699.226 561.279 697.338 559.609C698.936 555.891 693.508 556.091 692.287 550.164Z"/><path fill="#F0E5C6" transform="scale(0.688477 0.688477)" d="M704.599 564.801C709.435 563.528 709.339 566.509 713.915 566.186C720.825 568.195 724.112 568.792 731.312 568.834L731.328 569.473C725.639 569.476 723.718 569.215 718.207 571.108C712.954 569.612 709.182 567.744 704.599 564.801Z"/><path fill="#F0E5C6" transform="scale(0.688477 0.688477)" d="M749.562 565.982C757.891 562.286 760.646 560.664 767.556 554.89C766.03 558.002 765.476 558.756 763.42 561.462L763.793 562.057C761.622 563.916 758.56 565.922 755.887 566.962C754.526 565.915 751.455 566.071 749.562 565.982Z"/><path fill="#E79220" transform="scale(0.688477 0.688477)" d="M376.077 575.248C378.881 568.591 388.636 542.55 391.814 538.452C394.172 537.202 393.105 537.43 395.9 537.726C401.618 542.036 426.585 587.179 433.625 597.273C432.624 599.875 431.653 602.486 430.54 605.041C425.535 617.148 420.616 629.291 415.785 641.469C413.62 647.062 407.717 665.156 403.553 667.907C394.611 670.118 368.338 617.971 362.642 609.03C360.292 605.342 373.751 580.107 376.077 575.248Z"/><path fill="#F2EAD0" transform="scale(0.688477 0.688477)" d="M376.077 575.248L380.901 574.635C376.269 585.569 371.327 596.37 366.081 607.024C371.297 616.54 396.443 659.143 403.027 665.955L403.553 667.907C394.611 670.118 368.338 617.971 362.642 609.03C360.292 605.342 373.751 580.107 376.077 575.248Z"/><path fill="#F2EAD0" transform="scale(0.688477 0.688477)" d="M394.553 539.043L395.9 537.726C401.618 542.036 426.585 587.179 433.625 597.273C432.624 599.875 431.653 602.486 430.54 605.041C430.117 602.674 429.747 601.617 428.941 599.34C428.995 598.17 428.444 596.771 427.809 595.813C415.589 577.397 405.439 558.214 394.553 539.043Z"/><path fill="#F0E5C6" transform="scale(0.688477 0.688477)" d="M428.941 599.34C429.747 601.617 430.117 602.674 430.54 605.041C425.535 617.148 420.616 629.291 415.785 641.469C413.62 647.062 407.717 665.156 403.553 667.907L403.027 665.955C407.042 656.65 410.119 645.191 413.694 635.557C418.292 623.164 423.253 611.282 428.941 599.34Z"/><path fill="#F1ECD9" transform="scale(0.688477 0.688477)" d="M376.077 575.248C378.881 568.591 388.636 542.55 391.814 538.452C394.172 537.202 393.105 537.43 395.9 537.726L394.553 539.043C392.158 542.813 383.588 567.999 380.901 574.635L376.077 575.248Z"/><path fill="#E79220" transform="scale(0.688477 0.688477)" d="M1022.68 576.133C1028.85 563.339 1035.75 549.064 1043.4 537.238C1045.75 533.613 1050.17 537.565 1051.75 539.936C1054.25 550.431 1068.58 586.353 1073.51 596.097C1077.06 601.678 1081.9 606.058 1077.44 611.948C1076.19 613.971 1074.94 616.147 1073.47 617.997C1069.1 626.615 1062.44 636.913 1057.17 644.979C1054.06 650.294 1044.81 666.821 1041.02 668.887C1035.19 672.061 1021.65 628.065 1019.66 623.267C1016.35 615.254 1011.87 605.912 1009.7 598.063C1013.96 590.715 1018.29 583.405 1022.68 576.133Z"/><path fill="#F2EAD0" transform="scale(0.688477 0.688477)" d="M1022.68 576.133C1023.5 577.369 1023.88 577.643 1024.22 579.045C1020.78 585.702 1017.29 592.335 1013.75 598.943C1019.22 612.883 1024.8 625.822 1029.91 640.027C1032.06 646.01 1036.87 660.606 1039.28 665.524C1041.34 662.553 1048.37 651.519 1049.89 649.721C1053.61 648.022 1052.72 645.851 1055.77 643.915L1057.17 644.979C1054.06 650.294 1044.81 666.821 1041.02 668.887C1035.19 672.061 1021.65 628.065 1019.66 623.267C1016.35 615.254 1011.87 605.912 1009.7 598.063C1013.96 590.715 1018.29 583.405 1022.68 576.133Z"/><path fill="#F0E5C6" transform="scale(0.688477 0.688477)" d="M1047.5 539.33L1051.75 539.936C1054.25 550.431 1068.58 586.353 1073.51 596.097L1071.14 597.919C1059.5 575.014 1056.36 561.951 1047.5 539.33Z"/><path fill="#F2EAD0" transform="scale(0.688477 0.688477)" d="M1022.68 576.133C1028.85 563.339 1035.75 549.064 1043.4 537.238C1045.75 533.613 1050.17 537.565 1051.75 539.936L1047.5 539.33C1043.1 542.152 1028.87 574.523 1024.22 579.045C1023.88 577.643 1023.5 577.369 1022.68 576.133Z"/><path fill="#F0E5C6" transform="scale(0.688477 0.688477)" d="M1073.11 611.863L1075.57 607.567C1076.22 609.395 1076.49 610.274 1077.44 611.948C1076.19 613.971 1074.94 616.147 1073.47 617.997C1069.1 626.615 1062.44 636.913 1057.17 644.979L1055.77 643.915C1052.72 645.851 1053.61 648.022 1049.89 649.721C1055.74 638.921 1066.35 623.535 1073.11 611.863Z"/><path fill="#F2EAD0" transform="scale(0.688477 0.688477)" d="M1073.11 611.863L1075.57 607.567C1076.22 609.395 1076.49 610.274 1077.44 611.948C1076.19 613.971 1074.94 616.147 1073.47 617.997C1072.95 614.11 1074.82 615.66 1073.11 611.863Z"/><path fill="#F2EAD0" transform="scale(0.688477 0.688477)" d="M1073.51 596.097C1077.06 601.678 1081.9 606.058 1077.44 611.948C1076.49 610.274 1076.22 609.395 1075.57 607.567C1075.09 605.854 1072.08 599.863 1071.14 597.919L1073.51 596.097Z"/><defs><linearGradient id="gradient_4" gradientUnits="userSpaceOnUse" x1="539.28503" y1="492.68481" x2="534.35999" y2="481.24686"><stop offset="0" stop-color="#ECE3C6" stop-opacity="0.98823529"/><stop offset="1" stop-color="#F3F2E8"/></linearGradient></defs><path fill="url(#gradient_4)" transform="scale(0.688477 0.688477)" d="M519.7 499.391C532.353 487.839 545.095 479.961 558.19 466.976C558.191 468.523 558.287 470.774 557.953 472.199C545.002 484.846 533.963 491.762 520.898 502.995L519.7 499.391Z"/><path fill="#F2E5C4" transform="scale(0.688477 0.688477)" d="M829.495 932.518C832.882 933.766 834.404 934.316 837.53 936.087C833.598 940.741 829.821 943.945 824.829 947.466L824.512 947.1C825.566 945.011 825.599 944.909 825.892 942.569C826.971 941.065 829.847 939.899 830.6 937.242C830.863 934.541 830.889 934.986 829.495 932.518Z"/><path fill="#F2EAD0" transform="scale(0.688477 0.688477)" d="M770.022 128.265L774.234 130.718C775.74 134.105 775.658 132.758 775.013 135.954C772.172 133.762 769.049 131.98 765.976 130.122C767.102 129.474 768.784 128.804 770.022 128.265Z"/></g></svg>